<?xml version="1.0" encoding="UTF-8" standalone="no"?>
<!-- Generator: Adobe Illustrator 15.0.0, SVG Export Plug-In . SVG Version: 6.00 Build 0)  -->

<svg
   xmlns:dc="http://purl.org/dc/elements/1.1/"
   xmlns:cc="http://creativecommons.org/ns#"
   xmlns:rdf="http://www.w3.org/1999/02/22-rdf-syntax-ns#"
   xmlns:svg="http://www.w3.org/2000/svg"
   xmlns="http://www.w3.org/2000/svg"
   xmlns:sodipodi="http://sodipodi.sourceforge.net/DTD/sodipodi-0.dtd"
   xmlns:inkscape="http://www.inkscape.org/namespaces/inkscape"
   id="Layer_1"
   enable-background="new 0 0 24 16"
   xml:space="preserve"
   height="16px"
   viewBox="0 0 24 16"
   width="24px"
   version="1.1"
   y="0px"
   x="0px"
   inkscape:version="0.48.3.1 r9886"
   sodipodi:docname="indicator-messages-mixed.svg"><defs
   id="defs18"><filter
     inkscape:collect="always"
     id="filter3765"><feGaussianBlur
       inkscape:collect="always"
       stdDeviation="0.325"
       id="feGaussianBlur3767" /></filter><filter
     inkscape:collect="always"
     id="filter3771"
     x="-0.05994"
     width="1.11988"
     y="-0.14032776"
     height="1.2806555"><feGaussianBlur
       inkscape:collect="always"
       stdDeviation="0.174825"
       id="feGaussianBlur3773" /></filter></defs><sodipodi:namedview
   pagecolor="#ffffff"
   bordercolor="#666666"
   borderopacity="1"
   objecttolerance="10"
   gridtolerance="10"
   guidetolerance="10"
   inkscape:pageopacity="0"
   inkscape:pageshadow="2"
   inkscape:window-width="1407"
   inkscape:window-height="972"
   id="namedview16"
   showgrid="false"
   inkscape:zoom="12.75"
   inkscape:cx="-0.39215686"
   inkscape:cy="8"
   inkscape:window-x="0"
   inkscape:window-y="24"
   inkscape:window-maximized="0"
   inkscape:current-layer="Layer_1" /><metadata
   id="metadata3176"><rdf:RDF><cc:Work
       rdf:about=""><dc:format>image/svg+xml</dc:format><dc:type
         rdf:resource="http://purl.org/dc/dcmitype/StillImage" /><dc:title /></cc:Work></rdf:RDF></metadata>

<path
   style="fill:#000000;fill-opacity:1;filter:url(#filter3765)"
   d="M 18.59,3.505 5.305,3.527 C 4.695,3.527 4,4.287 4,4.841 v 7.298 c 0,0.732 0.789,1.366 1.453,1.366 H 18.502 C 19.299,13.505 20,12.827 20,12.129 V 4.97 C 20,4.194 19.311,3.505 18.59,3.505 z m -2.84,5 2.387,2.448 -0.688,0.688 L 15,9.192 13.457,10.723 H 10.544 L 9,9.192 6.551,11.673 5.864,10.954 8.282,8.504 4.863,5.055 5.551,4.367 11.03,7.504 h 1.953 l 5.472,-3.136 0.688,0.687 -3.393,3.45 z"
   id="path3763"
   inkscape:connector-curvature="0" /><path
   id="path5_11_"
   d="m18.59 3.005l-13.285 0.022c-0.61 0-1.305 0.76-1.305 1.314v7.298c0 0.732 0.789 1.366 1.453 1.366h13.049c0.797 0 1.498-0.678 1.498-1.376v-7.159c0-0.776-0.689-1.465-1.41-1.465zm-2.84 5l2.387 2.448-0.688 0.688-2.449-2.449-1.543 1.531h-2.913l-1.544-1.531-2.449 2.481-0.687-0.719 2.418-2.45-3.419-3.449 0.688-0.688 5.479 3.137h1.953l5.472-3.136 0.688 0.687-3.393 3.45z"
   fill="#DFDBD2"
   style="fill:#e6e6e6;fill-opacity:1" />

<linearGradient
   id="path10_1_"
   y2="-2603.9"
   gradientUnits="userSpaceOnUse"
   x2="2239"
   gradientTransform="matrix(1,0,0,-1,-2219.5,-2593)"
   y1="-2607"
   x1="2239">
	<stop
   id="stop3159"
   style="stop-color:#676868"
   offset="0" />
	<stop
   id="stop3161"
   style="stop-color:#EAEAEA"
   offset="1" />
</linearGradient>
<path
   d="m 16,13.20442 c 0,0.537 0.131,1.041 0.348,1.496 l 6.313,-0.018 c 0.212,-0.45 0.339,-0.948 0.339,-1.478 0,-0.537 -0.131,-1.039 -0.348,-1.494 l -6.314,0.02 c -0.211,0.449 -0.338,0.947 -0.338,1.474 z"
   id="path3769"
   style="fill:#000000;fill-opacity:1;filter:url(#filter3771);opacity:0.7"
   inkscape:connector-curvature="0" /><path
   id="path10_2_"
   d="m16 12.504c0 0.537 0.131 1.041 0.348 1.496l6.313-0.018c0.212-0.45 0.339-0.948 0.339-1.478 0-0.537-0.131-1.039-0.348-1.494l-6.314 0.02c-0.211 0.449-0.338 0.947-0.338 1.474z"
   fill="url(#path10_1_)" />
<radialGradient
   id="path4312_2_"
   gradientUnits="userSpaceOnUse"
   cy="2209"
   cx="1785.6"
   gradientTransform="matrix(1.2512 0 0 1.2512 -2214.7 -2754.2)"
   r="3.199">
	<stop
   id="stop3165"
   style="stop-color:#fff"
   offset="0" />
	<stop
   id="stop3167"
   style="stop-color:#fff;stop-opacity:.498"
   offset=".3" />
	<stop
   id="stop3169"
   style="stop-color:#fff;stop-opacity:0"
   offset="1" />
</radialGradient>
<path
   id="path4312_1_"
   d="m22.656 11.005l-6.312 0.031c-0.109 0.233-0.191 0.461-0.25 0.719 0.7 1.161 1.951 1.938 3.406 1.938s2.706-0.771 3.406-1.938c-0.06-0.26-0.136-0.514-0.25-0.75z"
   fill="url(#path4312_2_)" />
</svg>