<?xml version="1.0" encoding="UTF-8" standalone="no"?>
<!-- Generator: Adobe Illustrator 15.0.0, SVG Export Plug-In . SVG Version: 6.00 Build 0)  -->

<svg
   xmlns:dc="http://purl.org/dc/elements/1.1/"
   xmlns:cc="http://creativecommons.org/ns#"
   xmlns:rdf="http://www.w3.org/1999/02/22-rdf-syntax-ns#"
   xmlns:svg="http://www.w3.org/2000/svg"
   xmlns="http://www.w3.org/2000/svg"
   xmlns:sodipodi="http://sodipodi.sourceforge.net/DTD/sodipodi-0.dtd"
   xmlns:inkscape="http://www.inkscape.org/namespaces/inkscape"
   id="Layer_1"
   xml:space="preserve"
   height="16px"
   viewBox="0 0 24 16"
   width="24px"
   version="1.1"
   y="0px"
   x="0px"
   enable-background="new 0 0 24 16"
   inkscape:version="0.48.3.1 r9886"
   sodipodi:docname="indicator-messages-away.svg"><metadata
   id="metadata24"><rdf:RDF><cc:Work
       rdf:about=""><dc:format>image/svg+xml</dc:format><dc:type
         rdf:resource="http://purl.org/dc/dcmitype/StillImage" /></cc:Work></rdf:RDF></metadata><defs
   id="defs22"><filter
     inkscape:collect="always"
     id="filter3771"><feGaussianBlur
       inkscape:collect="always"
       stdDeviation="0.325"
       id="feGaussianBlur3773" /></filter><filter
     inkscape:collect="always"
     id="filter3781"><feGaussianBlur
       inkscape:collect="always"
       stdDeviation="0.262465"
       id="feGaussianBlur3783" /></filter></defs><sodipodi:namedview
   pagecolor="#ffffff"
   bordercolor="#666666"
   borderopacity="1"
   objecttolerance="10"
   gridtolerance="10"
   guidetolerance="10"
   inkscape:pageopacity="0"
   inkscape:pageshadow="2"
   inkscape:window-width="1188"
   inkscape:window-height="810"
   id="namedview20"
   showgrid="false"
   inkscape:zoom="12.75"
   inkscape:cx="-0.39215686"
   inkscape:cy="8"
   inkscape:window-x="0"
   inkscape:window-y="24"
   inkscape:window-maximized="0"
   inkscape:current-layer="Layer_1" />

<path
   style="fill:#000000;fill-opacity:1;filter:url(#filter3771)"
   d="M 18.59,3.5 5.305,3.522 C 4.695,3.522 4,4.282 4,4.836 v 7.298 C 4,12.866 4.789,13.5 5.453,13.5 H 18.502 C 19.299,13.5 20,12.822 20,12.124 V 4.965 C 20,4.189 19.311,3.5 18.59,3.5 z m -2.84,5 2.387,2.448 -0.688,0.688 L 15,9.188 13.457,10.718 H 10.544 L 9,9.188 6.551,11.669 5.864,10.95 8.282,8.5 4.863,5.051 5.551,4.363 11.03,7.5 h 1.953 L 18.454,4.364 19.142,5.051 15.75,8.5 z"
   id="path3769"
   inkscape:connector-curvature="0" /><path
   id="path5_18_"
   d="m18.59 3l-13.285 0.022c-0.61 0-1.305 0.76-1.305 1.314v7.298c0 0.732 0.789 1.366 1.453 1.366h13.049c0.797 0 1.498-0.678 1.498-1.376v-7.159c0-0.776-0.689-1.465-1.41-1.465zm-2.84 5l2.387 2.448-0.688 0.688-2.449-2.448-1.543 1.53h-2.913l-1.544-1.53-2.449 2.481-0.687-0.719 2.418-2.45-3.419-3.449 0.688-0.688 5.479 3.137h1.953l5.471-3.136 0.688 0.687-3.392 3.449z"
   fill="#DFDBD2"
   style="fill:#e6e6e6;fill-opacity:1" />

<linearGradient
   id="path10_1_"
   y2="2333.8"
   gradientUnits="userSpaceOnUse"
   x2="-1984"
   gradientTransform="matrix(-1 0 0 1 -1965 -2326)"
   y1="2341"
   x1="-1984">
	<stop
   style="stop-color:#D6942A"
   offset="0"
   id="stop7" />
	<stop
   style="stop-color:#F9D507"
   offset="1"
   id="stop9" />
</linearGradient>
<path
   d="m 15,15.700084 c 0.21,-0.479 0.469,-1.016 0.773,-1.602 0.306,-0.59 0.642,-1.195 1.004,-1.816 0.363,-0.622 0.736,-1.236 1.117,-1.85 0.383,-0.609 0.756,-1.188 1.12,-1.732 0.357,0.546 0.731,1.129 1.112,1.75 0.388,0.621 0.751,1.243 1.104,1.864 0.354,0.62 0.687,1.228 0.989,1.815 0.312,0.588 0.569,1.111 0.779,1.569 l -7.998,0.002 z"
   id="path3775"
   style="fill:#000000;fill-opacity:1;filter:url(#filter3781);opacity:0.7"
   inkscape:connector-curvature="0" /><path
   id="path10_6_"
   d="m15 15c0.21-0.479 0.469-1.016 0.773-1.602 0.306-0.59 0.642-1.195 1.004-1.816 0.363-0.622 0.736-1.236 1.117-1.85 0.383-0.609 0.756-1.188 1.12-1.732 0.357 0.546 0.731 1.129 1.112 1.75 0.388 0.621 0.751 1.243 1.104 1.864 0.354 0.62 0.687 1.228 0.989 1.815 0.312 0.588 0.569 1.111 0.779 1.569l-7.998 0.002z"
   fill="url(#path10_1_)" />
<radialGradient
   id="path3767_1_"
   gradientUnits="userSpaceOnUse"
   cy="-1962.5"
   cx="1762"
   gradientTransform="matrix(1.1134 0 0 -1.1134 -1942.8 -2176)"
   r="3.593">
	<stop
   style="stop-color:#fff"
   offset="0"
   id="stop13" />
	<stop
   style="stop-color:#fff;stop-opacity:.498"
   offset=".6042"
   id="stop15" />
	<stop
   style="stop-color:#fff;stop-opacity:0"
   offset="1"
   id="stop17" />
</radialGradient>
<path
   id="path3767_2_"
   d="m19 8c-0.363 0.545-0.711 1.109-1.094 1.719-0.383 0.613-0.762 1.254-1.125 1.875-0.117 0.201-0.201 0.396-0.312 0.594 0.689 0.562 1.572 0.906 2.531 0.906s1.842-0.344 2.531-0.906c-0.104-0.188-0.174-0.373-0.281-0.562-0.354-0.621-0.742-1.254-1.125-1.875-0.381-0.622-0.764-1.205-1.125-1.751z"
   fill="url(#path3767_1_)" />
</svg>