<?xml version="1.0" encoding="UTF-8" standalone="no"?>
<!-- Generator: Adobe Illustrator 15.0.0, SVG Export Plug-In . SVG Version: 6.00 Build 0)  -->
<!DOCTYPE svg  PUBLIC '-//W3C//DTD SVG 1.1//EN'  'http://www.w3.org/Graphics/SVG/1.1/DTD/svg11.dtd'>
<svg id="svg3229" xmlns:rdf="http://www.w3.org/1999/02/22-rdf-syntax-ns#" xmlns="http://www.w3.org/2000/svg" enable-background="new 0 0 22 16" xml:space="preserve" height="16px" viewBox="0 0 22 16" width="22px" version="1.1" y="0px" x="0px" xmlns:cc="http://creativecommons.org/ns#" xmlns:xlink="http://www.w3.org/1999/xlink" xmlns:dc="http://purl.org/dc/elements/1.1/">
<path id="rect3170-2" opacity=".3" d="m3.305 3.022c-0.609 0-1.305 0.76-1.305 1.314v9.298c0 0.732 0.789 1.366 1.454 1.366h15.048c0.797 0 1.498-0.678 1.498-1.376v-9.159c0-0.776-0.689-1.465-1.41-1.465l-15.285 0.022zm0.539 1.134l6.844 6.844h0.594l6.875-6.844 0.688 0.688-4.095 4.156 3.094 3.156-0.688 0.688-3.156-3.156-2.28 2.312h-1.438l-2.282-2.312-3.156 3.188-0.688-0.719 3.126-3.157-4.125-4.156 0.687-0.688z" enable-background="new    " fill="#231F20"/>
<path id="rect3170" d="m3.305 2.022c-0.609 0-1.305 0.76-1.305 1.314v9.298c0 0.732 0.789 1.366 1.454 1.366h15.048c0.797 0 1.498-0.678 1.498-1.376v-9.159c0-0.776-0.689-1.465-1.41-1.465l-15.285 0.022zm0.539 1.134l6.844 6.844h0.594l6.875-6.844 0.688 0.688-4.095 4.156 3.094 3.156-0.688 0.688-3.156-3.156-2.28 2.312h-1.438l-2.282-2.312-3.156 3.188-0.688-0.719 3.126-3.157-4.125-4.156 0.687-0.688z" fill="#19B6EE"/>
</svg>
