<?xml version="1.0" encoding="UTF-8" standalone="no"?>
<!-- Generator: Adobe Illustrator 15.0.0, SVG Export Plug-In . SVG Version: 6.00 Build 0)  -->
<svg id="Layer_1" xmlns:rdf="http://www.w3.org/1999/02/22-rdf-syntax-ns#" xmlns="http://www.w3.org/2000/svg" enable-background="new 0 0 24 16" xml:space="preserve" height="16px" viewBox="0 0 24 16" width="24px" version="1.1" y="0px" x="0px" xmlns:cc="http://creativecommons.org/ns#" xmlns:xlink="http://www.w3.org/1999/xlink" xmlns:dc="http://purl.org/dc/elements/1.1/"><metadata id="metadata3019"><rdf:RDF><cc:Work rdf:about=""><dc:format>image/svg+xml</dc:format><dc:type rdf:resource="http://purl.org/dc/dcmitype/StillImage"/><dc:title/></cc:Work></rdf:RDF></metadata>
<path id="path5_29_" opacity=".3" d="m18.59 4l-13.285 0.022c-0.61 0-1.305 0.76-1.305 1.314v7.298c0 0.732 0.789 1.366 1.453 1.366h13.049c0.797 0 1.498-0.678 1.498-1.376v-7.159c0-0.776-0.689-1.465-1.41-1.465zm-2.84 5l2.387 2.448-0.688 0.688-2.449-2.448-2.279 2.312h-1.438l-2.283-2.312-2.449 2.481-0.687-0.719 2.418-2.45-3.419-3.449 0.688-0.688 6.137 6.137 0.595-0.001 6.168-6.136 0.688 0.687-3.389 3.45z" connector-curvature="0" enable-background="new    " fill="#020202"/>
<path id="path5_28_" d="m18.59 3l-13.285 0.022c-0.61 0-1.305 0.76-1.305 1.314v7.298c0 0.732 0.789 1.366 1.453 1.366h13.049c0.797 0 1.498-0.678 1.498-1.376v-7.159c0-0.776-0.689-1.465-1.41-1.465zm-2.84 5l2.387 2.448-0.688 0.688-2.449-2.448-2.279 2.312h-1.438l-2.283-2.312-2.449 2.481-0.687-0.719 2.418-2.45-3.419-3.449 0.688-0.688 6.137 6.137 0.595-0.001 6.168-6.136 0.688 0.687-3.389 3.45z" connector-curvature="0" fill-opacity=".9529" fill="#2EB5E9"/>
<path id="path8_8_" style="opacity:.3" d="m18 10c-0.553 0-1 0.447-1 1v4c0 0.553 0.447 1 1 1h4c0.553 0 1-0.447 1-1v-4c0-0.553-0.447-1-1-1h-4z"/>
<linearGradient id="path10_1_" y2="2041" gradientUnits="userSpaceOnUse" x2="-2277" gradientTransform="matrix(0,-1,1,0,-2021,-2268)" y1="2041" x1="-2283">
	<stop id="stop3002" style="stop-color:#676868" offset="0"/>
	<stop id="stop3004" style="stop-color:#eaeaea" offset="1"/>
</linearGradient>
<radialGradient id="path3789_1_" gradientUnits="userSpaceOnUse" cy="2122.6" cx="1774" gradientTransform="matrix(1.1033 0 0 1.1033 -1937.3 -2332.9)" r="3.6285">
	<stop id="stop3008" style="stop-color:#fff" offset="0"/>
	<stop id="stop3010" style="stop-color:#fff;stop-opacity:.498" offset=".3958"/>
	<stop id="stop3012" style="stop-color:#fff;stop-opacity:0" offset="1"/>
</radialGradient>
<path id="rect3037" style="fill:#333" d="m18 9c-0.553 0-1 0.447-1 1v4c0 0.553 0.447 1 1 1h4c0.553 0 1-0.447 1-1v-4c0-0.553-0.447-1-1-1h-4z"/><path id="path10_8_" style="fill:url(#path10_1_)" d="m18 9c-0.553 0-1 0.447-1 1v4c0 0.553 0.447 1 1 1h4c0.553 0 1-0.447 1-1v-4c0-0.553-0.447-1-1-1h-4zm0 1h4v4h-4v-4z"/><path id="path3789_2_" style="fill:url(#path3789_1_)" d="m18 9c-0.553 0-1 0.447-1 1v1.656c0.282 0.32 0.628 0.567 1 0.782v-2.438h4v2.438c0.372-0.215 0.718-0.462 1-0.782v-1.656c0-0.553-0.447-1-1-1h-4z"/></svg>
