<?xml version="1.0" encoding="UTF-8" standalone="no"?>
<!-- Generator: Adobe Illustrator 15.0.0, SVG Export Plug-In . SVG Version: 6.00 Build 0)  -->

<svg
   xmlns:dc="http://purl.org/dc/elements/1.1/"
   xmlns:cc="http://creativecommons.org/ns#"
   xmlns:rdf="http://www.w3.org/1999/02/22-rdf-syntax-ns#"
   xmlns:svg="http://www.w3.org/2000/svg"
   xmlns="http://www.w3.org/2000/svg"
   xmlns:sodipodi="http://sodipodi.sourceforge.net/DTD/sodipodi-0.dtd"
   xmlns:inkscape="http://www.inkscape.org/namespaces/inkscape"
   id="Layer_1"
   xml:space="preserve"
   height="16px"
   viewBox="0 0 24 16"
   width="24px"
   version="1.1"
   y="0px"
   x="0px"
   enable-background="new 0 0 24 16"
   inkscape:version="0.48.3.1 r9886"
   sodipodi:docname="indicator-messages-offline.svg"><metadata
   id="metadata24"><rdf:RDF><cc:Work
       rdf:about=""><dc:format>image/svg+xml</dc:format><dc:type
         rdf:resource="http://purl.org/dc/dcmitype/StillImage" /></cc:Work></rdf:RDF></metadata><defs
   id="defs22"><filter
     inkscape:collect="always"
     id="filter3771"><feGaussianBlur
       inkscape:collect="always"
       stdDeviation="0.325"
       id="feGaussianBlur3773" /></filter><filter
     inkscape:collect="always"
     id="filter3781"><feGaussianBlur
       inkscape:collect="always"
       stdDeviation="0.2148825"
       id="feGaussianBlur3783" /></filter></defs><sodipodi:namedview
   pagecolor="#ffffff"
   bordercolor="#666666"
   borderopacity="1"
   objecttolerance="10"
   gridtolerance="10"
   guidetolerance="10"
   inkscape:pageopacity="0"
   inkscape:pageshadow="2"
   inkscape:window-width="1225"
   inkscape:window-height="883"
   id="namedview20"
   showgrid="false"
   inkscape:zoom="12.75"
   inkscape:cx="-0.39215686"
   inkscape:cy="8"
   inkscape:window-x="0"
   inkscape:window-y="24"
   inkscape:window-maximized="0"
   inkscape:current-layer="Layer_1" />

<path
   style="fill:#000000;fill-opacity:1;filter:url(#filter3771)"
   d="M 18.59,3.5 5.305,3.522 C 4.696,3.522 4,4.282 4,4.836 v 7.298 C 4,12.866 4.789,13.5 5.453,13.5 H 18.502 C 19.299,13.5 20,12.822 20,12.124 V 4.965 C 20,4.189 19.311,3.5 18.59,3.5 z m -2.84,5 2.387,2.448 -0.688,0.688 L 15,9.188 13.457,10.718 H 10.544 L 9,9.188 6.551,11.669 5.864,10.95 8.282,8.5 4.863,5.051 5.551,4.363 11.029,7.5 h 1.953 L 18.453,4.364 19.141,5.051 15.75,8.5 z"
   id="path3769"
   inkscape:connector-curvature="0" /><path
   id="path5_3_"
   d="m18.59 3l-13.285 0.022c-0.609 0-1.305 0.76-1.305 1.314v7.298c0 0.732 0.789 1.366 1.453 1.366h13.049c0.797 0 1.498-0.678 1.498-1.376v-7.159c0-0.776-0.689-1.465-1.41-1.465zm-2.84 5l2.387 2.448-0.688 0.688-2.449-2.448-1.543 1.53h-2.913l-1.544-1.53-2.449 2.481-0.687-0.719 2.418-2.45-3.419-3.449 0.688-0.688 5.478 3.137h1.953l5.471-3.136 0.688 0.687-3.391 3.449z"
   fill="#DFDBD2"
   style="fill:#e6e6e6;fill-opacity:1" />

<linearGradient
   id="path2999_2_"
   y2="-2186"
   gradientUnits="userSpaceOnUse"
   x2="-2686.9"
   gradientTransform="matrix(0 -1 -1 0 -2166.5 -2678)"
   y1="-2186"
   x1="-2693">
	<stop
   style="stop-color:#676868"
   offset="0"
   id="stop7" />
	<stop
   style="stop-color:#AAA9A8"
   offset=".3958"
   id="stop9" />
	<stop
   style="stop-color:#EAEAEA"
   offset="1"
   id="stop11" />
</linearGradient>
<path
   d="m 21.154,9.557282 -1.659,1.667 -1.662,-1.656 c -0.597,0.328 -1.082,0.816 -1.401,1.416 l 1.657,1.65 -1.647,1.651 c 0.322,0.591 0.809,1.073 1.396,1.396 l 1.646,-1.666 1.683,1.677 c 0.599,-0.319 1.086,-0.812 1.409,-1.403 l -1.69,-1.688 1.662,-1.688 c -0.334,-0.574 -0.812,-1.042 -1.394,-1.356 z"
   id="path3775"
   style="fill:#000000;fill-opacity:1;filter:url(#filter3781);opacity:0.7"
   inkscape:connector-curvature="0" /><path
   id="path2999_1_"
   d="m21.154 8.857l-1.659 1.667-1.662-1.656c-0.597 0.328-1.082 0.816-1.401 1.416l1.657 1.65-1.647 1.651c0.322 0.591 0.809 1.073 1.396 1.396l1.646-1.666 1.683 1.677c0.599-0.319 1.086-0.812 1.409-1.403l-1.69-1.688 1.662-1.688c-0.334-0.574-0.812-1.042-1.394-1.356z"
   fill="url(#path2999_2_)" />
<radialGradient
   id="path3783_2_"
   gradientUnits="userSpaceOnUse"
   cy="3158.3"
   cx="2581.2"
   gradientTransform="matrix(.8669 0 0 .8669 -2218.1 -2729)"
   r="4.6155">
	<stop
   style="stop-color:#fff"
   offset="0"
   id="stop15" />
	<stop
   style="stop-color:#fff;stop-opacity:0"
   offset="1"
   id="stop17" />
</radialGradient>
<path
   id="path3783_1_"
   d="m17.844 8.861c-0.596 0.329-1.086 0.811-1.406 1.407l1.656 1.654-0.5 0.5c0.566 0.311 1.217 0.5 1.906 0.5s1.34-0.189 1.906-0.5l-0.531-0.529 1.656-1.688c-0.326-0.573-0.793-1.031-1.375-1.345l-1.656 1.658-1.656-1.657z"
   fill="url(#path3783_2_)" />
</svg>