<?xml version="1.0" encoding="UTF-8" standalone="no"?>
<!-- Generator: Adobe Illustrator 15.0.0, SVG Export Plug-In . SVG Version: 6.00 Build 0)  -->

<svg
   xmlns:dc="http://purl.org/dc/elements/1.1/"
   xmlns:cc="http://creativecommons.org/ns#"
   xmlns:rdf="http://www.w3.org/1999/02/22-rdf-syntax-ns#"
   xmlns:svg="http://www.w3.org/2000/svg"
   xmlns="http://www.w3.org/2000/svg"
   xmlns:sodipodi="http://sodipodi.sourceforge.net/DTD/sodipodi-0.dtd"
   xmlns:inkscape="http://www.inkscape.org/namespaces/inkscape"
   id="Layer_1"
   xml:space="preserve"
   height="24px"
   viewBox="0 0 26 24"
   width="26px"
   version="1.1"
   y="0px"
   x="0px"
   enable-background="new 0 0 26 24"
   inkscape:version="0.48.3.1 r9886"
   sodipodi:docname="indicator-messages-offline.svg"><metadata
   id="metadata24"><rdf:RDF><cc:Work
       rdf:about=""><dc:format>image/svg+xml</dc:format><dc:type
         rdf:resource="http://purl.org/dc/dcmitype/StillImage" /></cc:Work></rdf:RDF></metadata><defs
   id="defs22"><filter
     inkscape:collect="always"
     id="filter3771"><feGaussianBlur
       inkscape:collect="always"
       stdDeviation="0.374975"
       id="feGaussianBlur3773" /></filter><filter
     inkscape:collect="always"
     id="filter3781"><feGaussianBlur
       inkscape:collect="always"
       stdDeviation="0.2148825"
       id="feGaussianBlur3783" /></filter></defs><sodipodi:namedview
   pagecolor="#ffffff"
   bordercolor="#666666"
   borderopacity="1"
   objecttolerance="10"
   gridtolerance="10"
   guidetolerance="10"
   inkscape:pageopacity="0"
   inkscape:pageshadow="2"
   inkscape:window-width="1146"
   inkscape:window-height="853"
   id="namedview20"
   showgrid="false"
   inkscape:zoom="9.8333333"
   inkscape:cx="-3.0677966"
   inkscape:cy="12"
   inkscape:window-x="0"
   inkscape:window-y="24"
   inkscape:window-maximized="0"
   inkscape:current-layer="Layer_1" />

<path
   style="fill:#000000;fill-opacity:1;filter:url(#filter3771)"
   d="m 20.59,6.50006 -15.285,0.021 c -0.61,0 -1.305,0.761 -1.305,1.313 v 9.298 c 0,0.731 0.789,1.366 1.453,1.366 h 15.049 c 0.797,0 1.498,-0.68 1.498,-1.376 v -9.159 c 0,-0.774 -0.689,-1.463 -1.41,-1.463 z m -3.84,6 3.094,3.156 -0.688,0.688 -3.156,-3.156 -1.543,1.531 h -2.913 l -1.544,-1.531 -3.156,3.188 -0.688,-0.719 3.125,-3.157 -4.125,-4.156 0.688,-0.688 6.185,3.844 h 1.953 l 6.178,-3.844 0.688,0.688 -4.098,4.156 z"
   id="path3769"
   inkscape:connector-curvature="0" /><path
   id="path5_17_"
   d="m20.59 6l-15.285 0.021c-0.61 0-1.305 0.761-1.305 1.313v9.298c0 0.731 0.789 1.366 1.453 1.366h15.049c0.797 0 1.498-0.68 1.498-1.376v-9.159c0-0.774-0.689-1.463-1.41-1.463zm-3.84 6l3.094 3.156-0.688 0.688-3.156-3.156-1.543 1.531h-2.913l-1.544-1.531-3.156 3.188-0.688-0.719 3.125-3.157-4.125-4.156 0.688-0.688 6.185 3.844h1.953l6.178-3.844 0.688 0.688-4.098 4.156z"
   fill="#DFDBD2"
   style="fill:#e6e6e6;fill-opacity:1" />

<linearGradient
   id="path2999_1_"
   y2="2507.5"
   gradientUnits="userSpaceOnUse"
   x2="-2492.4"
   gradientTransform="matrix(0 -1 1 0 -2486 -2478)"
   y1="2507.5"
   x1="-2498.6">
	<stop
   style="stop-color:#676868"
   offset="0"
   id="stop7" />
	<stop
   style="stop-color:#AAA9A8"
   offset=".3958"
   id="stop9" />
	<stop
   style="stop-color:#EAEAEA"
   offset="1"
   id="stop11" />
</linearGradient>
<path
   d="m 23.154,15.134282 -1.659,1.666 -1.662,-1.656 c -0.597,0.328 -1.082,0.816 -1.401,1.416 l 1.657,1.652 -1.647,1.651 c 0.322,0.591 0.81,1.073 1.396,1.396 l 1.646,-1.666 1.683,1.676 c 0.599,-0.316 1.086,-0.812 1.409,-1.4 l -1.69,-1.688 1.662,-1.688 c -0.334,-0.578 -0.812,-1.046 -1.394,-1.359 z"
   id="path3775"
   style="fill:#000000;fill-opacity:1;filter:url(#filter3781);opacity:0.7"
   inkscape:connector-curvature="0" /><path
   id="path2999_2_"
   d="m23.154 14.434l-1.659 1.666-1.662-1.656c-0.597 0.328-1.082 0.816-1.401 1.416l1.657 1.652-1.647 1.651c0.322 0.591 0.81 1.073 1.396 1.396l1.646-1.666 1.683 1.676c0.599-0.316 1.086-0.812 1.409-1.4l-1.69-1.688 1.662-1.688c-0.334-0.578-0.812-1.046-1.394-1.359z"
   fill="url(#path2999_1_)" />
<radialGradient
   id="path3783_1_"
   gradientUnits="userSpaceOnUse"
   cy="-3185.7"
   cx="3163.4"
   gradientTransform="matrix(.8669 0 0 -.8669 -2720.9 -2747.1)"
   r="4.6172">
	<stop
   style="stop-color:#fff"
   offset="0"
   id="stop15" />
	<stop
   style="stop-color:#fff;stop-opacity:0"
   offset="1"
   id="stop17" />
</radialGradient>
<path
   id="path3783_2_"
   d="m19.844 14.438c-0.596 0.328-1.086 0.812-1.406 1.406l1.656 1.656-0.5 0.5c0.566 0.309 1.217 0.5 1.906 0.5s1.34-0.191 1.906-0.5l-0.531-0.531 1.656-1.688c-0.326-0.573-0.793-1.031-1.375-1.344l-1.656 1.654-1.656-1.653z"
   fill="url(#path3783_1_)" />
</svg>