<?xml version="1.0" encoding="UTF-8" standalone="no"?>
<!-- Generator: Adobe Illustrator 15.0.0, SVG Export Plug-In . SVG Version: 6.00 Build 0)  -->

<svg
   xmlns:dc="http://purl.org/dc/elements/1.1/"
   xmlns:cc="http://creativecommons.org/ns#"
   xmlns:rdf="http://www.w3.org/1999/02/22-rdf-syntax-ns#"
   xmlns:svg="http://www.w3.org/2000/svg"
   xmlns="http://www.w3.org/2000/svg"
   xmlns:sodipodi="http://sodipodi.sourceforge.net/DTD/sodipodi-0.dtd"
   xmlns:inkscape="http://www.inkscape.org/namespaces/inkscape"
   id="Layer_1"
   enable-background="new 0 0 26 24"
   xml:space="preserve"
   height="24px"
   viewBox="0 0 26 24"
   width="26px"
   version="1.1"
   y="0px"
   x="0px"
   inkscape:version="0.48.3.1 r9886"
   sodipodi:docname="indicator-messages-invisible.svg"><defs
   id="defs19"><filter
     inkscape:collect="always"
     id="filter3766"><feGaussianBlur
       inkscape:collect="always"
       stdDeviation="0.375"
       id="feGaussianBlur3768" /></filter><filter
     inkscape:collect="always"
     id="filter3772"><feGaussianBlur
       inkscape:collect="always"
       stdDeviation="0.21"
       id="feGaussianBlur3774" /></filter></defs><sodipodi:namedview
   pagecolor="#ffffff"
   bordercolor="#666666"
   borderopacity="1"
   objecttolerance="10"
   gridtolerance="10"
   guidetolerance="10"
   inkscape:pageopacity="0"
   inkscape:pageshadow="2"
   inkscape:window-width="1105"
   inkscape:window-height="804"
   id="namedview17"
   showgrid="false"
   inkscape:zoom="9.8333333"
   inkscape:cx="-3.0677966"
   inkscape:cy="12"
   inkscape:window-x="0"
   inkscape:window-y="24"
   inkscape:window-maximized="0"
   inkscape:current-layer="Layer_1" /><metadata
   id="metadata3023"><rdf:RDF><cc:Work
       rdf:about=""><dc:format>image/svg+xml</dc:format><dc:type
         rdf:resource="http://purl.org/dc/dcmitype/StillImage" /><dc:title /></cc:Work></rdf:RDF></metadata>

<path
   style="fill:#000000;fill-opacity:1;filter:url(#filter3766)"
   d="M 20.59,6.5 5.305,6.521 C 4.695,6.521 4,7.282 4,7.834 v 9.298 C 4,17.866 4.789,18.5 5.453,18.5 H 20.502 C 21.299,18.5 22,17.822 22,17.124 V 7.965 C 22,7.189 21.311,6.5 20.59,6.5 z m -3.84,6 3.094,3.156 -0.688,0.688 L 16,13.188 14.457,14.719 H 11.544 L 10,13.188 6.844,16.376 6.156,15.657 9.281,12.5 5.156,8.344 5.844,7.656 12.029,11.5 h 1.953 L 20.16,7.656 20.848,8.344 16.75,12.5 z"
   id="path3764"
   inkscape:connector-curvature="0" /><path
   id="path5_4_"
   d="m20.59 6l-15.285 0.021c-0.61 0-1.305 0.761-1.305 1.313v9.298c0 0.734 0.789 1.368 1.453 1.368h15.049c0.797 0 1.498-0.678 1.498-1.376v-9.159c0-0.776-0.689-1.465-1.41-1.465zm-3.84 6l3.094 3.156-0.688 0.688-3.156-3.156-1.543 1.531h-2.913l-1.544-1.531-3.156 3.188-0.688-0.719 3.125-3.157-4.125-4.156 0.688-0.688 6.185 3.844h1.953l6.178-3.844 0.688 0.688-4.098 4.156z"
   fill="#DFDBD2"
   style="fill:#e6e6e6;fill-opacity:1" />

<linearGradient
   id="path10_1_"
   y2="2508"
   gradientUnits="userSpaceOnUse"
   x2="-2493"
   gradientTransform="matrix(0,-1,1,0,-2486,-2479)"
   y1="2508"
   x1="-2499">
	<stop
   id="stop3006"
   style="stop-color:#676868"
   offset="0" />
	<stop
   id="stop3008"
   style="stop-color:#eaeaea"
   offset="1" />
</linearGradient>
<radialGradient
   id="path3789_2_"
   gradientUnits="userSpaceOnUse"
   cy="2414.4"
   cx="2536.4"
   gradientTransform="matrix(1.1033 0 0 1.1033 -2776.4 -2649.9)"
   r="3.6311">
	<stop
   id="stop3012"
   style="stop-color:#fff"
   offset="0" />
	<stop
   id="stop3014"
   style="stop-color:#fff;stop-opacity:.498"
   offset=".3958" />
	<stop
   id="stop3016"
   style="stop-color:#fff;stop-opacity:0"
   offset="1" />
</radialGradient>
<path
   id="path3025"
   style="fill:#333"
   d="m20 14c-0.553 0-1 0.447-1 1v4c0 0.553 0.447 1 1 1h4c0.553 0 1-0.447 1-1v-4c0-0.553-0.447-1-1-1h-4z" /><path
   d="m 20,14.7 c -0.553,0 -1,0.447 -1,1 v 4 c 0,0.553 0.447,1 1,1 h 4 c 0.553,0 1,-0.447 1,-1 v -4 c 0,-0.553 -0.447,-1 -1,-1 h -4 z m 0,1 h 4 v 4 h -4 v -4 z"
   style="fill:#000000;fill-opacity:1;stroke:none;filter:url(#filter3772);opacity:0.7"
   id="path3770"
   inkscape:connector-curvature="0" /><path
   id="path10_3_"
   style="fill:url(#path10_1_)"
   d="m20 14c-0.553 0-1 0.447-1 1v4c0 0.553 0.447 1 1 1h4c0.553 0 1-0.447 1-1v-4c0-0.553-0.447-1-1-1h-4zm0 1h4v4h-4v-4z" /><path
   id="path3789_1_"
   style="fill:url(#path3789_2_)"
   d="m20 14c-0.553 0-1 0.447-1 1v1.656c0.282 0.32 0.628 0.567 1 0.782v-2.438h4v2.438c0.372-0.215 0.718-0.462 1-0.782v-1.656c0-0.553-0.447-1-1-1h-4z" /></svg>