<?xml version="1.0" encoding="UTF-8" standalone="no"?>
<!-- Generator: Adobe Illustrator 15.0.0, SVG Export Plug-In . SVG Version: 6.00 Build 0)  -->
<!DOCTYPE svg  PUBLIC '-//W3C//DTD SVG 1.1//EN'  'http://www.w3.org/Graphics/SVG/1.1/DTD/svg11.dtd'>
<svg id="Layer_1" xmlns="http://www.w3.org/2000/svg" xml:space="preserve" height="24px" viewBox="0 0 26 24" width="26px" version="1.1" y="0px" x="0px" xmlns:xlink="http://www.w3.org/1999/xlink" enable-background="new 0 0 26 24">
<path id="path5_16_" opacity=".3" d="m20.59 7l-15.285 0.022c-0.61 0-1.305 0.76-1.305 1.314v9.298c0 0.732 0.789 1.366 1.453 1.366h15.049c0.797 0 1.498-0.678 1.498-1.376v-9.159c0-0.776-0.689-1.465-1.41-1.465zm-3.84 6l3.094 3.156-0.688 0.688-3.156-3.156-2.279 2.312h-1.438l-2.283-2.312-3.156 3.188-0.688-0.719 3.125-3.157-4.125-4.156 0.688-0.688 6.844 6.844h0.598l6.875-6.844 0.688 0.688-4.099 4.156z" enable-background="new    " fill="#020202"/>
<path id="path5_15_" d="m20.59 6l-15.285 0.022c-0.61 0-1.305 0.76-1.305 1.314v9.298c0 0.732 0.789 1.366 1.453 1.366h15.049c0.797 0 1.498-0.678 1.498-1.376v-9.159c0-0.776-0.689-1.465-1.41-1.465zm-3.84 6l3.094 3.156-0.688 0.688-3.156-3.156-2.279 2.312h-1.438l-2.283-2.312-3.156 3.188-0.688-0.719 3.125-3.157-4.125-4.156 0.688-0.688 6.844 6.844h0.598l6.875-6.844 0.688 0.688-4.099 4.156z" fill-opacity=".9529" fill="#2EB5E9"/>
<path id="path8_8_" opacity=".3" d="m25 21c-0.21-0.479-0.469-1.016-0.773-1.602-0.306-0.59-0.642-1.195-1.004-1.816-0.363-0.622-0.736-1.236-1.117-1.85-0.383-0.609-0.756-1.188-1.119-1.732-0.355 0.546-0.729 1.129-1.11 1.75-0.39 0.621-0.751 1.243-1.104 1.864-0.354 0.62-0.688 1.228-0.989 1.815-0.312 0.588-0.568 1.109-0.778 1.567l7.994 0.004z" enable-background="new    " fill="#020202"/>
<linearGradient id="path10_1_" y2="2667.8" gradientUnits="userSpaceOnUse" x2="-2329" gradientTransform="matrix(-1 0 0 1 -2308 -2655)" y1="2675" x1="-2329">
	<stop style="stop-color:#D6942A" offset="0"/>
	<stop style="stop-color:#F9D507" offset="1"/>
</linearGradient>
<path id="path10_8_" d="m17 20c0.21-0.479 0.469-1.016 0.773-1.602 0.306-0.59 0.642-1.195 1.004-1.816 0.363-0.622 0.736-1.236 1.117-1.85 0.383-0.609 0.756-1.188 1.119-1.732 0.355 0.546 0.729 1.129 1.11 1.75 0.39 0.621 0.751 1.243 1.104 1.864 0.354 0.62 0.688 1.228 0.989 1.815 0.312 0.588 0.568 1.109 0.778 1.567l-7.994 0.004z" fill="url(#path10_1_)"/>
<radialGradient id="path3767_1_" gradientUnits="userSpaceOnUse" cy="-2488.4" cx="2519.8" gradientTransform="matrix(1.1134 0 0 -1.1134 -2784.5 -2756.5)" r="3.5919">
	<stop style="stop-color:#fff" offset="0"/>
	<stop style="stop-color:#fff;stop-opacity:.498" offset=".6042"/>
	<stop style="stop-color:#fff;stop-opacity:0" offset="1"/>
</radialGradient>
<path id="path3767_2_" d="m21 13c-0.363 0.545-0.711 1.109-1.094 1.719-0.383 0.613-0.762 1.254-1.125 1.875-0.117 0.201-0.201 0.396-0.312 0.594 0.689 0.562 1.572 0.906 2.531 0.906s1.842-0.344 2.531-0.906c-0.104-0.188-0.174-0.373-0.281-0.562-0.354-0.621-0.742-1.254-1.125-1.875-0.381-0.622-0.764-1.205-1.125-1.751z" fill="url(#path3767_1_)"/>
</svg>
