<?xml version="1.0" encoding="UTF-8" standalone="no"?>
<!-- Generator: Adobe Illustrator 15.0.0, SVG Export Plug-In . SVG Version: 6.00 Build 0)  -->

<svg
   xmlns:dc="http://purl.org/dc/elements/1.1/"
   xmlns:cc="http://creativecommons.org/ns#"
   xmlns:rdf="http://www.w3.org/1999/02/22-rdf-syntax-ns#"
   xmlns:svg="http://www.w3.org/2000/svg"
   xmlns="http://www.w3.org/2000/svg"
   xmlns:sodipodi="http://sodipodi.sourceforge.net/DTD/sodipodi-0.dtd"
   xmlns:inkscape="http://www.inkscape.org/namespaces/inkscape"
   id="Layer_1"
   xml:space="preserve"
   height="24px"
   viewBox="0 0 26 24"
   width="26px"
   version="1.1"
   y="0px"
   x="0px"
   enable-background="new 0 0 26 24"
   inkscape:version="0.48.3.1 r9886"
   sodipodi:docname="indicator-messages-available.svg"><metadata
   id="metadata24"><rdf:RDF><cc:Work
       rdf:about=""><dc:format>image/svg+xml</dc:format><dc:type
         rdf:resource="http://purl.org/dc/dcmitype/StillImage" /></cc:Work></rdf:RDF></metadata><defs
   id="defs22"><filter
     inkscape:collect="always"
     id="filter3771"><feGaussianBlur
       inkscape:collect="always"
       stdDeviation="0.375"
       id="feGaussianBlur3773" /></filter><filter
     inkscape:collect="always"
     id="filter3785"><feGaussianBlur
       inkscape:collect="always"
       stdDeviation="0.245"
       id="feGaussianBlur3787" /></filter></defs><sodipodi:namedview
   pagecolor="#ffffff"
   bordercolor="#666666"
   borderopacity="1"
   objecttolerance="10"
   gridtolerance="10"
   guidetolerance="10"
   inkscape:pageopacity="0"
   inkscape:pageshadow="2"
   inkscape:window-width="989"
   inkscape:window-height="675"
   id="namedview20"
   showgrid="false"
   inkscape:zoom="9.8333333"
   inkscape:cx="3.0215027"
   inkscape:cy="12"
   inkscape:window-x="0"
   inkscape:window-y="24"
   inkscape:window-maximized="0"
   inkscape:current-layer="Layer_1" />

<path
   style="fill:#000000;fill-opacity:1;filter:url(#filter3771)"
   d="M 20.59,6.5 5.305,6.521 C 4.694,6.521 4,7.282 4,7.836 v 9.298 C 4,17.866 4.789,18.5 5.453,18.5 H 20.502 C 21.299,18.5 22,17.822 22,17.124 V 7.965 C 22,7.189 21.311,6.5 20.59,6.5 z m -3.84,6 3.094,3.156 -0.688,0.688 L 16,13.188 14.457,14.719 H 11.543 L 10,13.188 6.844,16.376 6.156,15.657 9.281,12.5 5.156,8.344 5.844,7.656 12.028,11.5 h 1.954 L 20.16,7.656 20.848,8.344 16.75,12.5 z"
   id="path3769"
   inkscape:connector-curvature="0" /><path
   id="path5_8_"
   d="m20.59 6l-15.285 0.021c-0.611 0-1.305 0.761-1.305 1.315v9.298c0 0.732 0.789 1.366 1.453 1.366h15.049c0.797 0 1.498-0.678 1.498-1.376v-9.159c0-0.776-0.689-1.465-1.41-1.465zm-3.84 6l3.094 3.156-0.688 0.688-3.156-3.156-1.543 1.531h-2.914l-1.543-1.531-3.156 3.188-0.688-0.719 3.125-3.157-4.125-4.156 0.688-0.688 6.184 3.844h1.954l6.178-3.844 0.688 0.688-4.098 4.156z"
   fill="#DFDBD2"
   style="fill:#e6e6e6;fill-opacity:1" />

<linearGradient
   id="circle7_1_"
   y2="2219"
   gradientUnits="userSpaceOnUse"
   x2="-2081"
   gradientTransform="matrix(0 -1 1 0 -2197.5 -2068)"
   y1="2219"
   x1="-2087.9">
	<stop
   style="stop-color:#2E8942"
   offset="0"
   id="stop7" />
	<stop
   style="stop-color:#6CBF5A"
   offset="1"
   id="stop9" />
</linearGradient>
<circle
   r="3.5"
   cx="21.5"
   cy="16.5"
   id="circle3775"
   style="fill:#000000;fill-opacity:1;filter:url(#filter3785);opacity:0.7"
   sodipodi:cx="21.5"
   sodipodi:cy="16.5"
   sodipodi:rx="3.5"
   sodipodi:ry="3.5"
   transform="translate(0,0.59999999)" /><circle
   id="circle7_2_"
   cy="16.5"
   cx="21.5"
   r="3.5"
   fill="url(#circle7_1_)" />
<radialGradient
   id="path3798_1_"
   gradientUnits="userSpaceOnUse"
   cy="2026.5"
   cx="2263.7"
   gradientTransform="matrix(1.1134 0 0 1.1134 -2498.9 -2242.8)"
   r="3.5929">
	<stop
   style="stop-color:#fff"
   offset="0"
   id="stop13" />
	<stop
   style="stop-color:#fff;stop-opacity:.498"
   offset=".4375"
   id="stop15" />
	<stop
   style="stop-color:#fff;stop-opacity:0"
   offset="1"
   id="stop17" />
</radialGradient>
<path
   id="path3798_2_"
   d="m21.5 13c-1.633 0-2.988 1.113-3.375 2.625 0.707 1.129 1.945 1.875 3.375 1.875s2.668-0.746 3.375-1.875c-0.387-1.512-1.742-2.625-3.375-2.625z"
   fill="url(#path3798_1_)" />
</svg>