<?xml version="1.0" encoding="UTF-8" standalone="no"?>
<!-- Generator: Adobe Illustrator 15.0.0, SVG Export Plug-In . SVG Version: 6.00 Build 0)  -->

<svg
   xmlns:dc="http://purl.org/dc/elements/1.1/"
   xmlns:cc="http://creativecommons.org/ns#"
   xmlns:rdf="http://www.w3.org/1999/02/22-rdf-syntax-ns#"
   xmlns:svg="http://www.w3.org/2000/svg"
   xmlns="http://www.w3.org/2000/svg"
   xmlns:sodipodi="http://sodipodi.sourceforge.net/DTD/sodipodi-0.dtd"
   xmlns:inkscape="http://www.inkscape.org/namespaces/inkscape"
   version="1.1"
   id="Layer_1"
   x="0px"
   y="0px"
   width="26px"
   height="24px"
   viewBox="0 0 26 24"
   enable-background="new 0 0 26 24"
   xml:space="preserve"
   inkscape:version="0.48.3.1 r9886"
   sodipodi:docname="indicator-messages-busy.svg"><metadata
   id="metadata24"><rdf:RDF><cc:Work
       rdf:about=""><dc:format>image/svg+xml</dc:format><dc:type
         rdf:resource="http://purl.org/dc/dcmitype/StillImage" /></cc:Work></rdf:RDF></metadata><defs
   id="defs22"><filter
     inkscape:collect="always"
     id="filter3771"><feGaussianBlur
       inkscape:collect="always"
       stdDeviation="0.375"
       id="feGaussianBlur3773" /></filter><filter
     inkscape:collect="always"
     id="filter3777"><feGaussianBlur
       inkscape:collect="always"
       stdDeviation="0.21"
       id="feGaussianBlur3779" /></filter></defs><sodipodi:namedview
   pagecolor="#ffffff"
   bordercolor="#666666"
   borderopacity="1"
   objecttolerance="10"
   gridtolerance="10"
   guidetolerance="10"
   inkscape:pageopacity="0"
   inkscape:pageshadow="2"
   inkscape:window-width="1178"
   inkscape:window-height="807"
   id="namedview20"
   showgrid="false"
   inkscape:zoom="9.8333333"
   inkscape:cx="-3.0677966"
   inkscape:cy="12"
   inkscape:window-x="0"
   inkscape:window-y="24"
   inkscape:window-maximized="0"
   inkscape:current-layer="Layer_1" />

<path
   style="fill:#000000;fill-opacity:1;filter:url(#filter3771)"
   d="M 20.59,6.5 5.305,6.521 C 4.695,6.521 4,7.282 4,7.834 v 9.298 C 4,17.866 4.789,18.5 5.453,18.5 H 20.502 C 21.299,18.5 22,17.822 22,17.124 V 7.965 C 22,7.189 21.311,6.5 20.59,6.5 z m -3.84,6 3.094,3.156 -0.688,0.688 L 16,13.188 14.457,14.719 H 11.544 L 10,13.188 6.844,16.376 6.156,15.657 9.281,12.5 5.156,8.344 5.844,7.656 l 0,0 6.185,3.844 h 1.953 L 20.16,7.656 20.848,8.344 16.75,12.5 z"
   id="path3769"
   inkscape:connector-curvature="0" /><path
   id="path5_4_"
   fill="#DFDBD2"
   d="M20.59,6L5.305,6.021C4.695,6.021,4,6.782,4,7.334v9.298C4,17.366,4.789,18,5.453,18h15.049  C21.299,18,22,17.322,22,16.624V7.465C22,6.689,21.311,6,20.59,6z M16.75,12l3.094,3.156l-0.688,0.688L16,12.688l-1.543,1.531  h-2.913L10,12.688l-3.156,3.188l-0.688-0.719L9.281,12L5.156,7.844l0.688-0.688l0,0L12.029,11h1.953l6.178-3.844l0.688,0.688  L16.75,12z"
   style="fill:#e6e6e6;fill-opacity:1" />

<linearGradient
   id="path10_1_"
   gradientUnits="userSpaceOnUse"
   x1="-2499"
   y1="2508"
   x2="-2493"
   y2="2508"
   gradientTransform="matrix(0 -1 1 0 -2486 -2479)">
	<stop
   offset="0"
   style="stop-color:#E03D2B"
   id="stop7" />
	<stop
   offset="1"
   style="stop-color:#F47F78"
   id="stop9" />
</linearGradient>
<path
   d="m 24,14.7 c 0.553,0 1,0.447 1,1 v 4 c 0,0.553 -0.447,1 -1,1 h -4 c -0.553,0 -1,-0.447 -1,-1 v -4 c 0,-0.553 0.447,-1 1,-1 h 4 z"
   id="path3775"
   style="fill:#000000;fill-opacity:1;filter:url(#filter3777);opacity:0.7"
   inkscape:connector-curvature="0" /><path
   id="path10_3_"
   fill="url(#path10_1_)"
   d="M24,14c0.553,0,1,0.447,1,1v4c0,0.553-0.447,1-1,1h-4c-0.553,0-1-0.447-1-1v-4  c0-0.553,0.447-1,1-1H24z" />
<radialGradient
   id="path3789_2_"
   cx="2536.4082"
   cy="2414.4453"
   r="3.6311"
   gradientTransform="matrix(1.1033 0 0 1.1033 -2776.4307 -2649.8682)"
   gradientUnits="userSpaceOnUse">
	<stop
   offset="0"
   style="stop-color:#FFFFFF"
   id="stop13" />
	<stop
   offset="0.3958"
   style="stop-color:#FFFFFF;stop-opacity:0.498"
   id="stop15" />
	<stop
   offset="1"
   style="stop-color:#FFFFFF;stop-opacity:0"
   id="stop17" />
</radialGradient>
<path
   id="path3789_1_"
   fill="url(#path3789_2_)"
   d="M20,14c-0.553,0-1,0.447-1,1v1.656C19.732,17.484,20.807,18,22,18  s2.268-0.516,3-1.344V15c0-0.553-0.447-1-1-1H20z" />
</svg>