<?xml version="1.0" encoding="UTF-8" standalone="no"?>
<!-- Created with Inkscape (http://www.inkscape.org/) -->

<svg
   xmlns:dc="http://purl.org/dc/elements/1.1/"
   xmlns:cc="http://creativecommons.org/ns#"
   xmlns:rdf="http://www.w3.org/1999/02/22-rdf-syntax-ns#"
   xmlns:svg="http://www.w3.org/2000/svg"
   xmlns="http://www.w3.org/2000/svg"
   xmlns:sodipodi="http://sodipodi.sourceforge.net/DTD/sodipodi-0.dtd"
   xmlns:inkscape="http://www.inkscape.org/namespaces/inkscape"
   height="24"
   id="svg3229"
   inkscape:version="0.48.3.1 r9886"
   sodipodi:docname="nm-signal-25-secure.svg"
   version="1.0"
   width="24">
  <path
     d="m 21,15.3 c -1.108,0 -2,0.910763 -2,2.03125 L 19,18.3 c -0.554,0 -1,0.446 -1,1 l 0,3 c 0,0.554 0.446,1 1,1 l 4,0 c 0.554,0 1,-0.446 1,-1 l 0,-3 c 0,-0.554 -0.446,-1 -1,-1 l 0,-0.96875 C 23,16.210764 22.108,15.3 21,15.3 z m 0,1 c 0.554,0 1,0.442363 1,1 l 0,1 -2,0 0,-1 c 0,-0.557637 0.446,-1 1,-1 z"
     id="path3794"
     inkscape:connector-curvature="0"
     style="fill:#000000;fill-opacity:1;fill-rule:nonzero;stroke:none;stroke-width:1;marker:none;visibility:visible;display:inline;overflow:visible;filter:url(#filter3796);enable-background:accumulate" />
  <path
     d="m 11.145105,17 c -0.471902,0 -0.854895,0.298667 -0.854895,0.666667 0,0.136758 0.0529,0.263941 0.143587,0.369778 0,0 1.007602,0.801438 1.007602,0.801438 C 11.591259,18.938886 11.786534,19 12.000001,19 c 0.253303,0 0.480993,-0.08605 0.63758,-0.222693 0,0 0.900909,-0.710397 0.900909,-0.710397 0.107541,-0.111488 0.1713,-0.250094 0.1713,-0.400243 0,-0.368 -0.382993,-0.666667 -0.854895,-0.666667 0,0 -1.70979,0 -1.70979,0 z"
     id="path3196-5"
     inkscape:connector-curvature="0"
     style="fill:#c8c8c8;fill-opacity:1;fill-rule:evenodd;stroke:none;stroke-width:1.69999992999999994;marker:none;visibility:visible;display:inline;overflow:visible;enable-background:accumulate;opacity:0.4" />
  <sodipodi:namedview
     bordercolor="#666666"
     borderopacity="1"
     gridtolerance="10"
     guidetolerance="10"
     id="namedview13"
     inkscape:current-layer="svg3229"
     inkscape:cx="-6.7393709"
     inkscape:cy="15.068821"
     inkscape:pageopacity="0"
     inkscape:pageshadow="2"
     inkscape:window-height="697"
     inkscape:window-maximized="0"
     inkscape:window-width="1166"
     inkscape:window-x="156"
     inkscape:window-y="204"
     inkscape:zoom="11.166667"
     objecttolerance="10"
     pagecolor="#565656"
     showborder="true"
     showgrid="false">
    <inkscape:grid
       empspacing="5"
       enabled="true"
       id="grid2990"
       snapvisiblegridlinesonly="true"
       type="xygrid"
       visible="true" />
  </sodipodi:namedview>
  <metadata
     id="metadata9">
    <rdf:RDF>
      <cc:Work
         rdf:about="">
        <dc:format>image/svg+xml</dc:format>
        <dc:type
           rdf:resource="http://purl.org/dc/dcmitype/StillImage" />
        <dc:title></dc:title>
      </cc:Work>
    </rdf:RDF>
  </metadata>
  <defs
     id="defs3231">
    <filter
       inkscape:collect="always"
       id="filter3790"
       x="-0.26713807"
       width="1.5342761"
       y="-0.45675"
       height="1.9135">
      <feGaussianBlur
         inkscape:collect="always"
         stdDeviation="0.380625"
         id="feGaussianBlur3792" />
    </filter>
    <filter
       inkscape:collect="always"
       id="filter3796">
      <feGaussianBlur
         inkscape:collect="always"
         stdDeviation="0.175"
         id="feGaussianBlur3798" />
    </filter>
  </defs>
  <!-- imported from 'ubuntu-mono-dark/status/24/nm-vpn-lock.svg' -->
  <path
     style="fill:#c8c8c8;fill-opacity:1;fill-rule:nonzero;stroke:none;stroke-width:1;marker:none;visibility:visible;display:inline;overflow:visible;enable-background:accumulate"
     inkscape:connector-curvature="0"
     id="rect2822"
     d="m 21,15 c -1.108,0 -2,0.910763 -2,2.03125 L 19,18 c -0.554,0 -1,0.446 -1,1 l 0,3 c 0,0.554 0.446,1 1,1 l 4,0 c 0.554,0 1,-0.446 1,-1 l 0,-3 c 0,-0.554 -0.446,-1 -1,-1 l 0,-0.96875 C 23,15.910764 22.108,15 21,15 z m 0,1 c 0.554,0 1,0.442363 1,1 l 0,1 -2,0 0,-1 c 0,-0.557637 0.446,-1 1,-1 z" />
  <path
     style="fill:none;stroke:#e6e6e6;stroke-width:1.70000005000000010;stroke-linecap:round;stroke-linejoin:miter;stroke-miterlimit:4;stroke-opacity:1;stroke-dasharray:none;stroke-dashoffset:0;marker:none;visibility:visible;display:inline;overflow:visible;enable-background:accumulate;opacity:0.4"
     inkscape:connector-curvature="0"
     id="path3768"
     d="m 2.85,10.144409 c 0,0 2.8977535,-3.2944092 9.131958,-3.2944092 C 18.185515,6.8499998 21.15,10.15 21.15,10.15" />
  <path
     style="fill:none;stroke:#dcdcdc;stroke-width:1.69999992999999994;stroke-linecap:round;stroke-linejoin:miter;stroke-miterlimit:4;stroke-opacity:1;stroke-dasharray:none;stroke-dashoffset:0;marker:none;visibility:visible;display:inline;overflow:visible;enable-background:accumulate;opacity:0.4"
     inkscape:connector-curvature="0"
     id="path3770"
     d="m 5.3499998,12.752608 c 0,0 2.1468917,-2.215771 6.6500012,-2.136937 4.54046,0.07949 6.649999,2.172526 6.649999,2.172526" />
  <path
     style="fill:none;stroke:#d2d2d2;stroke-width:1.69999992999999994;stroke-linecap:round;stroke-linejoin:miter;stroke-miterlimit:4;stroke-opacity:1;stroke-dasharray:none;stroke-dashoffset:0;marker:none;visibility:visible;display:inline;overflow:visible;enable-background:accumulate;opacity:0.4"
     inkscape:connector-curvature="0"
     id="path3772"
     d="m 8.3499999,15.191046 c 0,0 0.9668981,-1.071983 3.5986811,-1.092208 2.598976,-0.01997 3.701319,1.092208 3.701319,1.092208" />
</svg>
