<?xml version="1.0" encoding="UTF-8" standalone="no"?>
<!-- Generator: Adobe Illustrator 15.0.0, SVG Export Plug-In . SVG Version: 6.00 Build 0)  -->

<svg
   xmlns:dc="http://purl.org/dc/elements/1.1/"
   xmlns:cc="http://creativecommons.org/ns#"
   xmlns:rdf="http://www.w3.org/1999/02/22-rdf-syntax-ns#"
   xmlns:svg="http://www.w3.org/2000/svg"
   xmlns="http://www.w3.org/2000/svg"
   xmlns:sodipodi="http://sodipodi.sourceforge.net/DTD/sodipodi-0.dtd"
   xmlns:inkscape="http://www.inkscape.org/namespaces/inkscape"
   version="1.1"
   id="Layer_1"
   x="0px"
   y="0px"
   width="26px"
   height="22px"
   viewBox="0 0 26 22"
   enable-background="new 0 0 26 22"
   xml:space="preserve"
   inkscape:version="0.48.3.1 r9886"
   sodipodi:docname="indicator-messages-busy.svg"><metadata
   id="metadata24"><rdf:RDF><cc:Work
       rdf:about=""><dc:format>image/svg+xml</dc:format><dc:type
         rdf:resource="http://purl.org/dc/dcmitype/StillImage" /></cc:Work></rdf:RDF></metadata><defs
   id="defs22"><filter
     inkscape:collect="always"
     id="filter3771"><feGaussianBlur
       inkscape:collect="always"
       stdDeviation="0.375"
       id="feGaussianBlur3773" /></filter><filter
     inkscape:collect="always"
     id="filter3777"><feGaussianBlur
       inkscape:collect="always"
       stdDeviation="0.21"
       id="feGaussianBlur3779" /></filter></defs><sodipodi:namedview
   pagecolor="#ffffff"
   bordercolor="#666666"
   borderopacity="1"
   objecttolerance="10"
   gridtolerance="10"
   guidetolerance="10"
   inkscape:pageopacity="0"
   inkscape:pageshadow="2"
   inkscape:window-width="1228"
   inkscape:window-height="874"
   id="namedview20"
   showgrid="false"
   inkscape:zoom="10.727273"
   inkscape:cx="-1.7288136"
   inkscape:cy="11"
   inkscape:window-x="0"
   inkscape:window-y="24"
   inkscape:window-maximized="0"
   inkscape:current-layer="Layer_1" />

<path
   style="fill:#000000;fill-opacity:1;filter:url(#filter3771)"
   d="M 20.59,5.5 5.305,5.521 C 4.695,5.521 4,6.282 4,6.834 v 9.298 C 4,16.866 4.789,17.5 5.453,17.5 H 20.502 C 21.299,17.5 22,16.822 22,16.124 V 6.965 C 22,6.189 21.311,5.5 20.59,5.5 z m -3.84,6 3.094,3.156 -0.688,0.688 L 16,12.188 14.457,13.719 H 11.544 L 10,12.188 6.844,15.376 6.156,14.657 9.281,11.5 5.156,7.344 5.844,6.656 l 0,0 6.185,3.844 h 1.953 L 20.16,6.656 20.848,7.344 16.75,11.5 z"
   id="path3769"
   inkscape:connector-curvature="0" /><path
   id="path5_4_"
   fill="#DFDBD2"
   d="M20.59,5L5.305,5.021C4.695,5.021,4,5.782,4,6.334v9.298C4,16.366,4.789,17,5.453,17h15.049  C21.299,17,22,16.322,22,15.624V6.465C22,5.689,21.311,5,20.59,5z M16.75,11l3.094,3.156l-0.688,0.688L16,11.688l-1.543,1.531  h-2.913L10,11.688l-3.156,3.188l-0.688-0.719L9.281,11L5.156,6.844l0.688-0.688l0,0L12.029,10h1.953l6.178-3.844l0.688,0.688  L16.75,11z"
   style="fill:#e6e6e6;fill-opacity:1" />

<linearGradient
   id="path10_1_"
   gradientUnits="userSpaceOnUse"
   x1="-2499"
   y1="2507"
   x2="-2493"
   y2="2507"
   gradientTransform="matrix(0 -1 1 0 -2485 -2480)">
	<stop
   offset="0"
   style="stop-color:#E03D2B"
   id="stop7" />
	<stop
   offset="1"
   style="stop-color:#F47F78"
   id="stop9" />
</linearGradient>
<path
   d="m 24,13.7 c 0.553,0 1,0.447 1,1 v 4 c 0,0.553 -0.447,1 -1,1 h -4 c -0.553,0 -1,-0.447 -1,-1 v -4 c 0,-0.553 0.447,-1 1,-1 h 4 z"
   id="path3775"
   style="fill:#000000;fill-opacity:1;filter:url(#filter3777);opacity:0.7"
   inkscape:connector-curvature="0" /><path
   id="path10_3_"
   fill="url(#path10_1_)"
   d="M24,13c0.553,0,1,0.447,1,1v4c0,0.553-0.447,1-1,1h-4c-0.553,0-1-0.447-1-1v-4  c0-0.553,0.447-1,1-1H24z" />
<radialGradient
   id="path3789_2_"
   cx="2536.4082"
   cy="2413.4453"
   r="3.6311"
   gradientTransform="matrix(1.1033 0 0 1.1033 -2776.4307 -2649.7646)"
   gradientUnits="userSpaceOnUse">
	<stop
   offset="0"
   style="stop-color:#FFFFFF"
   id="stop13" />
	<stop
   offset="0.3958"
   style="stop-color:#FFFFFF;stop-opacity:0.498"
   id="stop15" />
	<stop
   offset="1"
   style="stop-color:#FFFFFF;stop-opacity:0"
   id="stop17" />
</radialGradient>
<path
   id="path3789_1_"
   fill="url(#path3789_2_)"
   d="M20,13c-0.553,0-1,0.447-1,1v1.656C19.732,16.484,20.807,17,22,17  s2.268-0.516,3-1.344V14c0-0.553-0.447-1-1-1H20z" />
</svg>