<?xml version="1.0" encoding="UTF-8" standalone="no"?>
<!-- Generator: Adobe Illustrator 15.0.0, SVG Export Plug-In . SVG Version: 6.00 Build 0)  -->

<svg
   xmlns:dc="http://purl.org/dc/elements/1.1/"
   xmlns:cc="http://creativecommons.org/ns#"
   xmlns:rdf="http://www.w3.org/1999/02/22-rdf-syntax-ns#"
   xmlns:svg="http://www.w3.org/2000/svg"
   xmlns="http://www.w3.org/2000/svg"
   xmlns:sodipodi="http://sodipodi.sourceforge.net/DTD/sodipodi-0.dtd"
   xmlns:inkscape="http://www.inkscape.org/namespaces/inkscape"
   id="Layer_1"
   enable-background="new 0 0 26 22"
   xml:space="preserve"
   height="22px"
   viewBox="0 0 26 22"
   width="26px"
   version="1.1"
   y="0px"
   x="0px"
   inkscape:version="0.48.3.1 r9886"
   sodipodi:docname="indicator-messages-mixed.svg"><defs
   id="defs18"><filter
     inkscape:collect="always"
     id="filter3765"><feGaussianBlur
       inkscape:collect="always"
       stdDeviation="0.374975"
       id="feGaussianBlur3767" /></filter><filter
     inkscape:collect="always"
     id="filter3771"
     x="-0.05994"
     width="1.11988"
     y="-0.14032776"
     height="1.2806555"><feGaussianBlur
       inkscape:collect="always"
       stdDeviation="0.174825"
       id="feGaussianBlur3773" /></filter></defs><sodipodi:namedview
   pagecolor="#ffffff"
   bordercolor="#666666"
   borderopacity="1"
   objecttolerance="10"
   gridtolerance="10"
   guidetolerance="10"
   inkscape:pageopacity="0"
   inkscape:pageshadow="2"
   inkscape:window-width="1065"
   inkscape:window-height="747"
   id="namedview16"
   showgrid="false"
   inkscape:zoom="10.727273"
   inkscape:cx="-1.7288136"
   inkscape:cy="11"
   inkscape:window-x="0"
   inkscape:window-y="24"
   inkscape:window-maximized="0"
   inkscape:current-layer="Layer_1" /><metadata
   id="metadata24"><rdf:RDF><cc:Work
       rdf:about=""><dc:format>image/svg+xml</dc:format><dc:type
         rdf:resource="http://purl.org/dc/dcmitype/StillImage" /><dc:title /></cc:Work></rdf:RDF></metadata>

<path
   style="fill:#000000;fill-opacity:1;filter:url(#filter3765)"
   d="m 20.59,5.50006 -15.285,0.021 c -0.61,0 -1.305,0.761 -1.305,1.313 v 9.298 c 0,0.731 0.789,1.366 1.453,1.366 h 15.049 c 0.797,0 1.498,-0.68 1.498,-1.376 v -9.159 c 0,-0.774 -0.689,-1.463 -1.41,-1.463 z m -3.84,6 3.094,3.156 -0.688,0.688 -3.156,-3.156 -1.543,1.531 h -2.913 l -1.544,-1.531 -3.156,3.188 -0.688,-0.719 3.125,-3.157 -4.125,-4.156 0.688,-0.688 6.185,3.844 h 1.953 l 6.177,-3.844 0.688,0.688 -4.097,4.156 z"
   id="path3763"
   inkscape:connector-curvature="0" /><path
   id="path5_2_"
   d="m20.59 5l-15.285 0.021c-0.61 0-1.305 0.761-1.305 1.313v9.298c0 0.731 0.789 1.366 1.453 1.366h15.049c0.797 0 1.498-0.68 1.498-1.376v-9.159c0-0.774-0.689-1.463-1.41-1.463zm-3.84 6l3.094 3.156-0.688 0.688-3.156-3.156-1.543 1.531h-2.913l-1.544-1.531-3.156 3.188-0.688-0.719 3.125-3.157-4.125-4.156 0.688-0.688 6.185 3.844h1.953l6.177-3.844 0.688 0.688-4.097 4.156z"
   fill="#DFDBD2"
   style="fill:#e6e6e6;fill-opacity:1" />

<linearGradient
   id="path10_2_"
   y2="2669.9"
   gradientUnits="userSpaceOnUse"
   x2="2775.5"
   gradientTransform="translate(-2754 -2655)"
   y1="2673"
   x1="2775.5">
	<stop
   id="stop7"
   style="stop-color:#676868"
   offset="0" />
	<stop
   id="stop9"
   style="stop-color:#EAEAEA"
   offset="1" />
</linearGradient>
<path
   d="m 18,17.19942 c 0,0.537 0.131,1.041 0.348,1.496 l 6.313,-0.017 c 0.212,-0.451 0.339,-0.949 0.339,-1.479 0,-0.537 -0.131,-1.039 -0.348,-1.494 l -6.314,0.019 c -0.211,0.449 -0.338,0.947 -0.338,1.475 z"
   id="path3769"
   style="fill:#000000;fill-opacity:1;filter:url(#filter3771);opacity:0.7"
   inkscape:connector-curvature="0" /><path
   id="path10_1_"
   d="m18 16.499c0 0.537 0.131 1.041 0.348 1.496l6.313-0.017c0.212-0.451 0.339-0.949 0.339-1.479 0-0.537-0.131-1.039-0.348-1.494l-6.314 0.019c-0.211 0.449-0.338 0.947-0.338 1.475z"
   fill="url(#path10_2_)" />
<radialGradient
   id="path4312_2_"
   gradientUnits="userSpaceOnUse"
   cy="-2221.2"
   cx="2262.3"
   gradientTransform="matrix(1.2512 0 0 -1.2512 -2809.1 -2765.5)"
   r="3.1997">
	<stop
   id="stop13"
   style="stop-color:#fff"
   offset="0" />
	<stop
   id="stop15"
   style="stop-color:#fff;stop-opacity:.498"
   offset=".3" />
	<stop
   id="stop17"
   style="stop-color:#fff;stop-opacity:0"
   offset="1" />
</radialGradient>
<path
   id="path4312_1_"
   d="m24.656 15l-6.312 0.031c-0.109 0.234-0.191 0.461-0.25 0.719 0.7 1.161 1.951 1.938 3.406 1.938s2.706-0.771 3.406-1.938c-0.06-0.26-0.136-0.514-0.25-0.75z"
   fill="url(#path4312_2_)" />
</svg>