<?xml version="1.0" encoding="UTF-8" standalone="no"?>
<!-- Generator: Adobe Illustrator 15.0.0, SVG Export Plug-In . SVG Version: 6.00 Build 0)  -->

<svg
   xmlns:dc="http://purl.org/dc/elements/1.1/"
   xmlns:cc="http://creativecommons.org/ns#"
   xmlns:rdf="http://www.w3.org/1999/02/22-rdf-syntax-ns#"
   xmlns:svg="http://www.w3.org/2000/svg"
   xmlns="http://www.w3.org/2000/svg"
   xmlns:sodipodi="http://sodipodi.sourceforge.net/DTD/sodipodi-0.dtd"
   xmlns:inkscape="http://www.inkscape.org/namespaces/inkscape"
   id="Layer_1"
   enable-background="new 0 0 26 22"
   xml:space="preserve"
   height="22px"
   viewBox="0 0 26 22"
   width="26px"
   version="1.1"
   y="0px"
   x="0px"
   inkscape:version="0.48.3.1 r9886"
   sodipodi:docname="indicator-messages-invisible.svg"><sodipodi:namedview
   pagecolor="#ffffff"
   bordercolor="#666666"
   borderopacity="1"
   objecttolerance="10"
   gridtolerance="10"
   guidetolerance="10"
   inkscape:pageopacity="0"
   inkscape:pageshadow="2"
   inkscape:window-width="1213"
   inkscape:window-height="844"
   id="namedview18"
   showgrid="false"
   inkscape:zoom="10.727273"
   inkscape:cx="-1.7288136"
   inkscape:cy="11"
   inkscape:window-x="0"
   inkscape:window-y="24"
   inkscape:window-maximized="0"
   inkscape:current-layer="Layer_1" /><metadata
   id="metadata3151"><rdf:RDF><cc:Work
       rdf:about=""><dc:format>image/svg+xml</dc:format><dc:type
         rdf:resource="http://purl.org/dc/dcmitype/StillImage" /><dc:title /></cc:Work></rdf:RDF></metadata><defs
   id="defs3149"><linearGradient
     id="linearGradient5285"
     y2="2507"
     gradientUnits="userSpaceOnUse"
     x2="-2493"
     gradientTransform="matrix(0,-1,1,0,-2485,-2480)"
     y1="2507"
     x1="-2499"><stop
       id="stop3134"
       style="stop-color:#676868"
       offset="0" /><stop
       id="stop3136"
       style="stop-color:#eaeaea"
       offset="1" /></linearGradient><filter
     inkscape:collect="always"
     id="filter3765"><feGaussianBlur
       inkscape:collect="always"
       stdDeviation="0.375"
       id="feGaussianBlur3767" /></filter><filter
     inkscape:collect="always"
     id="filter3771"><feGaussianBlur
       inkscape:collect="always"
       stdDeviation="0.21"
       id="feGaussianBlur3773" /></filter></defs>

<path
   style="fill:#000000;fill-opacity:1;filter:url(#filter3765)"
   d="M 20.59,5.5 5.305,5.521 C 4.695,5.521 4,6.282 4,6.834 v 9.298 C 4,16.866 4.789,17.5 5.453,17.5 H 20.502 C 21.299,17.5 22,16.822 22,16.124 V 6.965 C 22,6.189 21.311,5.5 20.59,5.5 z m -3.84,6 3.094,3.156 -0.688,0.688 L 16,12.188 14.457,13.719 H 11.544 L 10,12.188 6.844,15.376 6.156,14.657 9.281,11.5 5.156,7.344 5.844,6.656 12.029,10.5 h 1.953 L 20.16,6.656 20.848,7.344 16.75,11.5 z"
   id="path3763"
   inkscape:connector-curvature="0" /><path
   id="path5_4_"
   d="m20.59 5l-15.285 0.021c-0.61 0-1.305 0.761-1.305 1.313v9.298c0 0.734 0.789 1.368 1.453 1.368h15.049c0.797 0 1.498-0.678 1.498-1.376v-9.159c0-0.776-0.689-1.465-1.41-1.465zm-3.84 6l3.094 3.156-0.688 0.688-3.156-3.156-1.543 1.531h-2.913l-1.544-1.531-3.156 3.188-0.688-0.719 3.125-3.157-4.125-4.156 0.688-0.688 6.185 3.844h1.953l6.178-3.844 0.688 0.688-4.098 4.156z"
   fill="#DFDBD2"
   style="fill:#e6e6e6;fill-opacity:1" />

<radialGradient
   id="path3789_2_"
   gradientUnits="userSpaceOnUse"
   cy="2413.4"
   cx="2536.4"
   gradientTransform="matrix(1.1033 0 0 1.1033 -2776.4 -2649.8)"
   r="3.6311">
	<stop
   id="stop3140"
   style="stop-color:#fff"
   offset="0" />
	<stop
   id="stop3142"
   style="stop-color:#fff;stop-opacity:.498"
   offset=".3958" />
	<stop
   id="stop3144"
   style="stop-color:#fff;stop-opacity:0"
   offset="1" />
</radialGradient>
<path
   id="rect3024"
   style="fill:#333"
   d="m20 13c-0.553 0-1 0.447-1 1v4c0 0.553 0.447 1 1 1h4c0.553 0 1-0.447 1-1v-4c0-0.553-0.447-1-1-1h-4z" /><path
   d="m 20,13.7 c -0.553,0 -1,0.447 -1,1 v 4 c 0,0.553 0.447,1 1,1 h 4 c 0.553,0 1,-0.447 1,-1 v -4 c 0,-0.553 -0.447,-1 -1,-1 h -4 z m 0,1 h 4 v 4 h -4 v -4 z"
   style="fill:#000000;fill-opacity:1;filter:url(#filter3771);opacity:0.7"
   id="path3769"
   inkscape:connector-curvature="0" /><path
   id="path10_3_"
   style="fill:url(#linearGradient5285)"
   d="m20 13c-0.553 0-1 0.447-1 1v4c0 0.553 0.447 1 1 1h4c0.553 0 1-0.447 1-1v-4c0-0.553-0.447-1-1-1h-4zm0 1h4v4h-4v-4z" /><path
   id="path3789_1_"
   style="fill:url(#path3789_2_)"
   d="m20 13c-0.553 0-1 0.447-1 1v1.656c0.282 0.32 0.628 0.567 1 0.782v-2.438h4v2.438c0.372-0.215 0.718-0.462 1-0.782v-1.656c0-0.553-0.447-1-1-1h-4z" /></svg>