<?xml version="1.0" encoding="UTF-8" standalone="no"?>
<!-- Created with Inkscape (http://www.inkscape.org/) -->

<svg
   xmlns:dc="http://purl.org/dc/elements/1.1/"
   xmlns:cc="http://creativecommons.org/ns#"
   xmlns:rdf="http://www.w3.org/1999/02/22-rdf-syntax-ns#"
   xmlns:svg="http://www.w3.org/2000/svg"
   xmlns="http://www.w3.org/2000/svg"
   xmlns:sodipodi="http://sodipodi.sourceforge.net/DTD/sodipodi-0.dtd"
   xmlns:inkscape="http://www.inkscape.org/namespaces/inkscape"
   id="svg3229"
   height="22"
   width="22"
   version="1.0"
   inkscape:version="0.48.3.1 r9886"
   sodipodi:docname="nm-signal-100.svg">
  <defs
     id="defs14">
    <filter
       inkscape:collect="always"
       id="filter3773">
      <feGaussianBlur
         inkscape:collect="always"
         stdDeviation="0.38062362"
         id="feGaussianBlur3775" />
    </filter>
  </defs>
  <sodipodi:namedview
     pagecolor="#ffffff"
     bordercolor="#666666"
     borderopacity="1"
     objecttolerance="10"
     gridtolerance="10"
     guidetolerance="10"
     inkscape:pageopacity="0"
     inkscape:pageshadow="2"
     inkscape:window-width="1049"
     inkscape:window-height="583"
     id="namedview12"
     showgrid="false"
     inkscape:zoom="10.727273"
     inkscape:cx="-3.9152542"
     inkscape:cy="11"
     inkscape:window-x="1"
     inkscape:window-y="24"
     inkscape:window-maximized="0"
     inkscape:current-layer="svg3229"
     showguides="true"
     inkscape:guide-bbox="true" />
  <metadata
     id="metadata9">
    <rdf:RDF>
      <cc:Work
         rdf:about="">
        <dc:format>image/svg+xml</dc:format>
        <dc:type
           rdf:resource="http://purl.org/dc/dcmitype/StillImage" />
        <dc:title></dc:title>
      </cc:Work>
    </rdf:RDF>
  </metadata>
  <path
     inkscape:connector-curvature="0"
     d="m 4.35,12.052613 c 0,0 2.1469,-2.2157997 6.65,-2.1368997 4.5405,0.07949 6.65,2.1724997 6.65,2.1724997"
     style="fill:none;stroke:#000000;stroke-width:1.70000005;stroke-linecap:round;stroke-opacity:1;filter:url(#filter3773)"
     id="path3761" />
  <path
     inkscape:connector-curvature="0"
     d="m 7.35,14.490613 c 0,0 0.9669,-1.072 3.5987,-1.0922 2.599,-0.01997 3.7013,1.0922 3.7013,1.0922"
     style="fill:none;stroke:#000000;stroke-width:1.70000005;stroke-linecap:round;stroke-opacity:1;filter:url(#filter3773)"
     id="path3763" />
  <path
     inkscape:connector-curvature="0"
     d="m 10.145,16.299613 c -0.4719,0 -0.8549,0.29867 -0.8549,0.66667 0,0.13676 0.0529,0.26394 0.14359,0.36978 0,0 1.0076,0.80144 1.0076,0.80144 0.15,0.101 0.346,0.162 0.559,0.162 0.2533,0 0.48099,-0.08605 0.63758,-0.22269 l 0.90091,-0.7104 c 0.10754,-0.11149 0.1713,-0.25009 0.1713,-0.40024 0,-0.368 -0.38299,-0.66667 -0.8549,-0.66667 h -1.7098 z"
     style="fill:#000000;fill-opacity:1;fill-rule:evenodd;filter:url(#filter3773)"
     id="path3765" />
  <path
     id="path3683"
     style="stroke-width:1.69999999999999996;stroke:#e6e6e6;stroke-linecap:round;fill:none;stroke-opacity:1;opacity:0.4"
     d="m1.85 9.1444s2.8978-3.2944 9.132-3.2944c6.204 0 9.168 3.3 9.168 3.3" />
  <path
     id="path3681"
     style="stroke-width:1.69999999999999996;stroke:#dcdcdc;stroke-linecap:round;fill:none;stroke-opacity:1"
     d="m4.35 11.753s2.1469-2.2158 6.65-2.1369c4.5405 0.07949 6.65 2.1725 6.65 2.1725" />
  <path
     id="path3209"
     style="stroke-width:1.69999999999999996;stroke:#d2d2d2;stroke-linecap:round;fill:none;stroke-opacity:1"
     d="m7.35 14.191s0.9669-1.072 3.5987-1.0922c2.599-0.01997 3.7013 1.0922 3.7013 1.0922" />
  <path
     id="path3196-5"
     style="fill-rule:evenodd;fill:#c8c8c8;fill-opacity:1"
     d="m10.145 16c-0.4719 0-0.8549 0.29867-0.8549 0.66667 0 0.13676 0.0529 0.26394 0.14359 0.36978 0 0 1.0076 0.80144 1.0076 0.80144 0.15 0.101 0.346 0.162 0.559 0.162 0.2533 0 0.48099-0.08605 0.63758-0.22269l0.90091-0.7104c0.10754-0.11149 0.1713-0.25009 0.1713-0.40024 0-0.368-0.38299-0.66667-0.8549-0.66667h-1.7098z" />
</svg>
