<?xml version="1.0" encoding="UTF-8" standalone="no"?>
<!-- Generator: Adobe Illustrator 15.0.0, SVG Export Plug-In . SVG Version: 6.00 Build 0)  -->

<svg
   xmlns:dc="http://purl.org/dc/elements/1.1/"
   xmlns:cc="http://creativecommons.org/ns#"
   xmlns:rdf="http://www.w3.org/1999/02/22-rdf-syntax-ns#"
   xmlns:svg="http://www.w3.org/2000/svg"
   xmlns="http://www.w3.org/2000/svg"
   xmlns:sodipodi="http://sodipodi.sourceforge.net/DTD/sodipodi-0.dtd"
   xmlns:inkscape="http://www.inkscape.org/namespaces/inkscape"
   id="Layer_1"
   xml:space="preserve"
   height="22px"
   viewBox="0 0 22 22"
   width="22px"
   version="1.1"
   y="0px"
   x="0px"
   enable-background="new 0 0 22 22"
   inkscape:version="0.48.3.1 r9886"
   sodipodi:docname="preferences-system-directory.svg"><metadata
   id="metadata9"><rdf:RDF><cc:Work
       rdf:about=""><dc:format>image/svg+xml</dc:format><dc:type
         rdf:resource="http://purl.org/dc/dcmitype/StillImage" /></cc:Work></rdf:RDF></metadata><defs
   id="defs7"><filter
     inkscape:collect="always"
     id="filter3787"><feGaussianBlur
       inkscape:collect="always"
       stdDeviation="0.5"
       id="feGaussianBlur3789" /></filter></defs><sodipodi:namedview
   pagecolor="#ffffff"
   bordercolor="#666666"
   borderopacity="1"
   objecttolerance="10"
   gridtolerance="10"
   guidetolerance="10"
   inkscape:pageopacity="0"
   inkscape:pageshadow="2"
   inkscape:window-width="952"
   inkscape:window-height="905"
   id="namedview5"
   showgrid="false"
   inkscape:zoom="10.727273"
   inkscape:cx="-10.235045"
   inkscape:cy="3.5423731"
   inkscape:window-x="0"
   inkscape:window-y="24"
   inkscape:window-maximized="0"
   inkscape:current-layer="Layer_1" />
		<path
   d="M 11,1 C 5.4777778,1 1,5.4766667 1,11 1,16.522222 5.4777778,21 11,21 16.522222,21 21,16.522222 21,11 21,5.4766667 16.523333,1 11,1 z M 8.0010594,3.440678 c 1.1545432,-0.037517 2.3378766,0.399209 3.2187506,1.28125 1.33682,1.3375945 1.588648,3.324984 0.8125,4.9375 l 5.09375,3.84375 c 0.901487,0.904598 0.903042,2.347736 0,3.25 -0.903042,0.901487 -2.348513,0.901487 -3.25,0 l -3.84375,-5.09375 C 8.4197841,12.434815 6.4308566,12.18607 5.0948094,10.846928 3.9187547,9.671651 3.542927,7.9864693 4.0010594,6.503178 l 2.3125,2.28125 2.65625,-0.1875 0.1875,-2.65625 -2.28125,-2.3125 c 0.3710172,-0.1145331 0.7401523,-0.1749942 1.125,-0.1875 z m 7.5000006,10.8125 c -0.221774,0 -0.457382,0.07966 -0.625,0.25 -0.340683,0.336015 -0.340683,0.878845 0,1.21875 0.335237,0.337571 0.879623,0.337571 1.21875,0 0.338349,-0.339127 0.338349,-0.881957 0,-1.21875 -0.169564,-0.170341 -0.371976,-0.25 -0.59375,-0.25 z"
   id="path2998"
   inkscape:connector-curvature="0"
   sodipodi:nodetypes="ssssssccccccccccccssccccs"
   style="fill:#969696;fill-opacity:1" />
</svg>